<svg width="1027" height="982" viewBox="0 0 1027 982" fill="none" xmlns="http://www.w3.org/2000/svg">
<path d="M491.097 373.618C688.282 212.358 698.177 -9.57608 678.476 -100.385L673.104 -105.329L801.381 -143.227L1023.01 -163L1223.15 -137.185C1254.05 -87.5696 1299.45 14.0783 1233.9 23.7451C1151.96 35.8286 1293 201.702 1293 295.624C1293 364.877 967.94 350.549 945.777 481.271C923.614 611.992 1054.58 669.78 894.735 786.77C734.892 903.76 646.239 980.432 491.097 1003.5C335.955 1026.57 5.25152 954.675 0.597079 774C-4.90298 560.5 244.616 575.192 491.097 373.618Z" fill="#303A52" fill-opacity="0.92"/>
<path d="M569.999 325C716.799 178.2 724.167 -23.8333 709.5 -106.5L705.5 -111L801 -145.5L966 -163.5L1115 -140C1138 -94.8333 1171.8 -2.3 1123 6.5C1062 17.5 1167 168.5 1167 254C1167 317.044 925 304 908.5 423C892 542 989.5 634 870.5 740.5C751.5 847 613 899.5 497.5 920.5C382 941.5 199 877 175.5 715C152 553 386.499 508.5 569.999 325Z" fill="#574B90" fill-opacity="0.91"/>
</svg>
